M48
; DRILL file {KiCad 9.0.0} date 2026-04-02T01:30:53-0400
; FORMAT={-:-/ absolute / inch / decimal}
; #@! TF.CreationDate,2026-04-02T01:30:53-04:00
; #@! TF.GenerationSoftware,Kicad,Pcbnew,9.0.0
; #@! TF.FileFunction,Plated,1,4,PTH
FMAT,2
INCH
; #@! TA.AperFunction,Plated,PTH,ComponentDrill
T1C0.0079
; #@! TA.AperFunction,Plated,PTH,ViaDrill
T2C0.0180
; #@! TA.AperFunction,Plated,PTH,ComponentDrill
T3C0.0236
; #@! TA.AperFunction,Plated,PTH,ComponentDrill
T4C0.0394
; #@! TA.AperFunction,Plated,PTH,ComponentDrill
T5C0.0433
; #@! TA.AperFunction,Plated,PTH,ComponentDrill
T6C0.0551
; #@! TA.AperFunction,Plated,PTH,ComponentDrill
T7C0.0630
%
G90
G05
T1
X5.4365Y-3.2534
X5.4365Y-3.3085
X5.4641Y-3.2258
X5.4641Y-3.2809
X5.4641Y-3.3361
X5.4917Y-3.2534
X5.4917Y-3.3085
X5.5192Y-3.2258
X5.5192Y-3.2809
X5.5192Y-3.3361
X5.5468Y-3.2534
X5.5468Y-3.3085
T2
X2.2835Y-1.9882
X2.2933Y-1.7028
X2.3115Y-3.2776
X2.34Y-2.0462
X2.664Y-1.5191
X2.664Y-1.8668
X2.7067Y-2.1555
X2.714Y-1.5183
X3.053Y-4.26
X3.8484Y-4.1437
X4.0453Y-4.0551
X4.19Y-3.9173
X4.2894Y-4.0965
X4.4291Y-3.8583
X4.4783Y-1.0236
X4.7323Y-4.0965
X4.8819Y-4.252
X4.9484Y-1.1736
X5.0111Y-0.796
X5.1083Y-0.6004
X5.2209Y-1.6
X5.2456Y-2.9331
X5.3583Y-4.1496
X5.3799Y-2.1811
X5.4528Y-1.8307
X5.4956Y-2.9365
X5.502Y-1.7421
X5.5039Y-1.6417
X5.5512Y-2.9331
X5.6004Y-2.9331
X5.6398Y-1.5157
X5.6398Y-1.8406
X5.6561Y-3.2809
X5.7456Y-2.9
X5.7956Y-3.7779
X5.8065Y-1.29
X5.8268Y-2.8937
X5.8372Y-1.4376
X5.8585Y-2.36
X5.9251Y-0.5905
X6.0531Y-2.1358
T4
X2.34Y-2.77
X2.34Y-2.87
X2.34Y-2.97
X2.34Y-3.07
X2.34Y-3.17
X3.18Y-4.26
X3.209Y-1.22
X3.28Y-4.26
X3.309Y-1.22
X3.38Y-4.26
X3.48Y-4.26
X3.5402Y-4.8813
X3.5402Y-4.9813
X3.58Y-4.26
X3.68Y-4.26
X3.78Y-4.26
X3.88Y-4.26
X3.98Y-4.26
X4.08Y-4.26
X4.36Y-4.32
X4.46Y-4.32
X4.56Y-4.32
X4.66Y-4.32
X4.76Y-4.32
X5.02Y-4.34
X5.12Y-4.34
X5.22Y-4.34
X5.32Y-4.34
T5
X3.1713Y-4.626
X3.2713Y-4.626
X3.3713Y-4.626
X3.4713Y-4.626
X3.5713Y-4.626
X3.6713Y-4.626
X3.7713Y-4.626
X3.8713Y-4.626
X3.9Y-1.38
X3.9713Y-4.626
X4.0713Y-4.626
X4.35Y-0.67
X4.5472Y-3.0807
X4.5866Y-3.4941
X4.6161Y-3.376
X4.6336Y-3.6122
X4.7343Y-3.2874
X4.7343Y-3.435
X4.7441Y-3.5531
X4.7539Y-3.0512
X4.8425Y-3.2283
X4.8819Y-3.3563
X4.9902Y-3.2185
X5.0Y-3.8583
X5.1476Y-3.9075
X5.2Y-0.89
X5.2854Y-3.8287
X5.2953Y-2.815
X5.3543Y-2.5492
X5.4134Y-2.6575
X5.4724Y-2.7657
X5.502Y-2.3425
X5.62Y-4.36
X5.79Y-4.35
X5.98Y-1.08
T6
X2.57Y-0.89
X2.57Y-4.03
X5.71Y-0.89
X5.71Y-4.03
T7
X4.49Y-1.6
X5.09Y-1.6
T3
G00X5.8368Y-1.6199
M15
G01X5.8683Y-1.6199
M16
G05
G00X5.8368Y-1.9601
M15
G01X5.8683Y-1.9601
M16
G05
G00X5.9864Y-1.6199
M15
G01X6.0336Y-1.6199
M16
G05
G00X5.9864Y-1.9601
M15
G01X6.0336Y-1.9601
M16
G05
T4
G00X2.755Y-1.0075
M15
G01X2.755Y-0.9287
M16
G05
G00X2.9006Y-0.85
M15
G01X2.9794Y-0.85
M16
G05
G00X2.8908Y-1.0862
M15
G01X2.9892Y-1.0862
M16
G05
M30
