%TF.GenerationSoftware,KiCad,Pcbnew,9.0.0*%
%TF.CreationDate,2026-04-02T01:30:16-04:00*%
%TF.ProjectId,Projet_balance,50726f6a-6574-45f6-9261-6c616e63652e,rev?*%
%TF.SameCoordinates,Original*%
%TF.FileFunction,Paste,Top*%
%TF.FilePolarity,Positive*%
%FSLAX46Y46*%
G04 Gerber Fmt 4.6, Leading zero omitted, Abs format (unit mm)*
G04 Created by KiCad (PCBNEW 9.0.0) date 2026-04-02 01:30:16*
%MOMM*%
%LPD*%
G01*
G04 APERTURE LIST*
G04 Aperture macros list*
%AMRoundRect*
0 Rectangle with rounded corners*
0 $1 Rounding radius*
0 $2 $3 $4 $5 $6 $7 $8 $9 X,Y pos of 4 corners*
0 Add a 4 corners polygon primitive as box body*
4,1,4,$2,$3,$4,$5,$6,$7,$8,$9,$2,$3,0*
0 Add four circle primitives for the rounded corners*
1,1,$1+$1,$2,$3*
1,1,$1+$1,$4,$5*
1,1,$1+$1,$6,$7*
1,1,$1+$1,$8,$9*
0 Add four rect primitives between the rounded corners*
20,1,$1+$1,$2,$3,$4,$5,0*
20,1,$1+$1,$4,$5,$6,$7,0*
20,1,$1+$1,$6,$7,$8,$9,0*
20,1,$1+$1,$8,$9,$2,$3,0*%
G04 Aperture macros list end*
%ADD10C,0.010000*%
%ADD11R,1.200000X2.500000*%
%ADD12R,1.727200X0.889000*%
%ADD13RoundRect,0.125000X-0.125000X-0.125000X0.125000X-0.125000X0.125000X0.125000X-0.125000X0.125000X0*%
%ADD14RoundRect,0.125000X0.125000X0.125000X-0.125000X0.125000X-0.125000X-0.125000X0.125000X-0.125000X0*%
%ADD15RoundRect,0.125000X-0.125000X0.125000X-0.125000X-0.125000X0.125000X-0.125000X0.125000X0.125000X0*%
%ADD16RoundRect,0.125000X0.125000X-0.125000X0.125000X0.125000X-0.125000X0.125000X-0.125000X-0.125000X0*%
%ADD17R,0.889000X1.727200*%
%ADD18R,1.400000X3.400000*%
%ADD19R,2.300000X5.600000*%
%ADD20R,1.150000X0.600000*%
%ADD21R,1.150000X0.300000*%
%ADD22R,1.400000X1.600000*%
%ADD23R,1.600000X1.400000*%
%ADD24RoundRect,0.161475X-0.484425X1.061225X-0.484425X-1.061225X0.484425X-1.061225X0.484425X1.061225X0*%
%ADD25RoundRect,0.153375X-0.460125X1.069325X-0.460125X-1.069325X0.460125X-1.069325X0.460125X1.069325X0*%
%ADD26RoundRect,0.145275X-0.435825X1.077425X-0.435825X-1.077425X0.435825X-1.077425X0.435825X1.077425X0*%
%ADD27RoundRect,0.445375X-1.815225X1.336125X-1.815225X-1.336125X1.815225X-1.336125X1.815225X1.336125X0*%
%ADD28R,1.320800X1.651000*%
%ADD29R,1.651000X1.320800*%
%ADD30R,3.500000X1.600000*%
%ADD31R,2.971800X1.270000*%
%ADD32RoundRect,0.100000X0.460000X0.300000X-0.460000X0.300000X-0.460000X-0.300000X0.460000X-0.300000X0*%
%ADD33R,5.689600X1.600200*%
%ADD34R,1.270000X2.971800*%
%ADD35R,4.150000X1.900000*%
%ADD36R,0.970000X1.730000*%
%ADD37RoundRect,0.150000X-0.150000X0.587500X-0.150000X-0.587500X0.150000X-0.587500X0.150000X0.587500X0*%
%ADD38R,0.939800X1.549400*%
%ADD39R,3.000000X1.550000*%
%ADD40R,2.565400X1.651000*%
%ADD41RoundRect,0.150000X0.150000X-0.850000X0.150000X0.850000X-0.150000X0.850000X-0.150000X-0.850000X0*%
%ADD42R,0.900000X1.500000*%
%ADD43R,1.500000X0.900000*%
%ADD44R,0.900000X0.900000*%
G04 APERTURE END LIST*
D10*
%TO.C,U5*%
X125442000Y-23459500D02*
X114842000Y-23459500D01*
X114842000Y-14959500D01*
X125442000Y-14959500D01*
X125442000Y-23459500D01*
G36*
X125442000Y-23459500D02*
G01*
X114842000Y-23459500D01*
X114842000Y-14959500D01*
X125442000Y-14959500D01*
X125442000Y-23459500D01*
G37*
X117192000Y-31459500D02*
X116292000Y-31459500D01*
X116292000Y-28159500D01*
X117192000Y-28159500D01*
X117192000Y-31459500D01*
G36*
X117192000Y-31459500D02*
G01*
X116292000Y-31459500D01*
X116292000Y-28159500D01*
X117192000Y-28159500D01*
X117192000Y-31459500D01*
G37*
X118892000Y-31459500D02*
X117992000Y-31459500D01*
X117992000Y-28159500D01*
X118892000Y-28159500D01*
X118892000Y-31459500D01*
G36*
X118892000Y-31459500D02*
G01*
X117992000Y-31459500D01*
X117992000Y-28159500D01*
X118892000Y-28159500D01*
X118892000Y-31459500D01*
G37*
X120592000Y-31459500D02*
X119692000Y-31459500D01*
X119692000Y-28159500D01*
X120592000Y-28159500D01*
X120592000Y-31459500D01*
G36*
X120592000Y-31459500D02*
G01*
X119692000Y-31459500D01*
X119692000Y-28159500D01*
X120592000Y-28159500D01*
X120592000Y-31459500D01*
G37*
X122292000Y-31459500D02*
X121392000Y-31459500D01*
X121392000Y-28159500D01*
X122292000Y-28159500D01*
X122292000Y-31459500D01*
G36*
X122292000Y-31459500D02*
G01*
X121392000Y-31459500D01*
X121392000Y-28159500D01*
X122292000Y-28159500D01*
X122292000Y-31459500D01*
G37*
X123992000Y-31459500D02*
X123092000Y-31459500D01*
X123092000Y-28159500D01*
X123992000Y-28159500D01*
X123992000Y-31459500D01*
G36*
X123992000Y-31459500D02*
G01*
X123092000Y-31459500D01*
X123092000Y-28159500D01*
X123992000Y-28159500D01*
X123992000Y-31459500D01*
G37*
%TD*%
D11*
%TO.C,SW3*%
X112920000Y-129000000D03*
X110420000Y-129000000D03*
X107920000Y-129000000D03*
X112920000Y-134500000D03*
X110420000Y-134500000D03*
X107920000Y-134500000D03*
%TD*%
D12*
%TO.C,R12*%
X93472000Y-104515300D03*
X93472000Y-100984700D03*
%TD*%
D13*
%TO.C,D14*%
X142150000Y-44250000D03*
X144350000Y-44250000D03*
%TD*%
%TO.C,D13*%
X142150000Y-41700000D03*
X144350000Y-41700000D03*
%TD*%
D14*
%TO.C,D12*%
X144330000Y-46750000D03*
X142130000Y-46750000D03*
%TD*%
D15*
%TO.C,D11*%
X132500000Y-105400000D03*
X132500000Y-107600000D03*
%TD*%
%TO.C,D10*%
X130000000Y-105650000D03*
X130000000Y-107850000D03*
%TD*%
%TO.C,D6*%
X118364000Y-104050000D03*
X118364000Y-106250000D03*
%TD*%
%TO.C,D5*%
X115750000Y-104050000D03*
X115750000Y-106250000D03*
%TD*%
D16*
%TO.C,D4*%
X113250000Y-106250000D03*
X113250000Y-104050000D03*
%TD*%
D15*
%TO.C,D2*%
X110744000Y-104050000D03*
X110744000Y-106250000D03*
%TD*%
D17*
%TO.C,R11*%
X136734700Y-46500000D03*
X140265300Y-46500000D03*
%TD*%
D18*
%TO.C,JBatt1*%
X88626000Y-24282500D03*
X86126000Y-24282500D03*
D19*
X91276000Y-17682500D03*
X83476000Y-17682500D03*
%TD*%
D20*
%TO.C,P1*%
X148079000Y-48666000D03*
X148079000Y-47866000D03*
D21*
X148079000Y-46716000D03*
X148079000Y-45716000D03*
X148079000Y-45216000D03*
X148079000Y-44216000D03*
D20*
X148079000Y-42266000D03*
X148079000Y-43066000D03*
D21*
X148079000Y-43716000D03*
X148079000Y-44716000D03*
X148079000Y-46216000D03*
X148079000Y-47216000D03*
%TD*%
D22*
%TO.C,SW2*%
X101148000Y-128632000D03*
X101148000Y-135832000D03*
X104148000Y-128632000D03*
X104148000Y-135832000D03*
%TD*%
%TO.C,SW4*%
X94060000Y-129350000D03*
X94060000Y-136550000D03*
X97060000Y-129350000D03*
X97060000Y-136550000D03*
%TD*%
D23*
%TO.C,SWBootOption1*%
X115400000Y-98000000D03*
X122600000Y-98000000D03*
X115400000Y-95000000D03*
X122600000Y-95000000D03*
%TD*%
%TO.C,SWRESET1*%
X136650000Y-52500000D03*
X143850000Y-52500000D03*
X136650000Y-49500000D03*
X143850000Y-49500000D03*
%TD*%
D24*
%TO.C,U3*%
X140803100Y-14786300D03*
D25*
X138535500Y-14786300D03*
D26*
X136267900Y-14786300D03*
D27*
X138709400Y-21840500D03*
%TD*%
D12*
%TO.C,R6*%
X59918600Y-36055300D03*
X59918600Y-32524700D03*
%TD*%
D17*
%TO.C,R5*%
X148265300Y-38500000D03*
X144734700Y-38500000D03*
%TD*%
D12*
%TO.C,R00*%
X63728600Y-32499300D03*
X63728600Y-28968700D03*
%TD*%
%TO.C,C16*%
X74655600Y-39611300D03*
X74655600Y-36080700D03*
%TD*%
D17*
%TO.C,R7*%
X143776700Y-64008000D03*
X147307300Y-64008000D03*
%TD*%
D28*
%TO.C,C8*%
X146786600Y-70866000D03*
X143789400Y-70866000D03*
%TD*%
D12*
%TO.C,R13*%
X100584000Y-103000000D03*
X100584000Y-99469400D03*
%TD*%
D29*
%TO.C,R4*%
X71602600Y-54864000D03*
X71602600Y-57861200D03*
%TD*%
D30*
%TO.C,C13*%
X139186000Y-32766000D03*
X144786000Y-32766000D03*
%TD*%
D29*
%TO.C,R3*%
X74552600Y-54864000D03*
X74552600Y-57861200D03*
%TD*%
D12*
%TO.C,C14*%
X132080000Y-18783300D03*
X132080000Y-15252700D03*
%TD*%
D31*
%TO.C,J2*%
X99314000Y-21241500D03*
X95714058Y-23781500D03*
X99314000Y-26321500D03*
%TD*%
D12*
%TO.C,C15*%
X147828000Y-18529300D03*
X147828000Y-14998700D03*
%TD*%
D17*
%TO.C,C9*%
X143776700Y-67310000D03*
X147307300Y-67310000D03*
%TD*%
D29*
%TO.C,R2*%
X67030600Y-61722000D03*
X67030600Y-64719200D03*
%TD*%
D28*
%TO.C,C11*%
X151498600Y-54250000D03*
X148501400Y-54250000D03*
%TD*%
D32*
%TO.C,D3*%
X86437500Y-125250000D03*
X82977500Y-125250000D03*
%TD*%
D33*
%TO.C,L2*%
X132334000Y-32321500D03*
X132334000Y-27622500D03*
%TD*%
D28*
%TO.C,R15*%
X78486000Y-40640000D03*
X81483200Y-40640000D03*
%TD*%
D12*
%TO.C,R14*%
X88392000Y-98056700D03*
X88392000Y-101587300D03*
%TD*%
D17*
%TO.C,R8*%
X145515300Y-56250000D03*
X141984700Y-56250000D03*
%TD*%
D34*
%TO.C,J5*%
X78264000Y-134053942D03*
X75724000Y-130454000D03*
X73184000Y-134053942D03*
%TD*%
D12*
%TO.C,R9*%
X133000000Y-69015300D03*
X133000000Y-65484700D03*
%TD*%
D28*
%TO.C,C1*%
X71530000Y-50774600D03*
X74527200Y-50774600D03*
%TD*%
D35*
%TO.C,C17*%
X110155000Y-31750000D03*
X103205000Y-31750000D03*
%TD*%
D28*
%TO.C,R1*%
X62255400Y-57658000D03*
X65252600Y-57658000D03*
%TD*%
D36*
%TO.C,F1*%
X99358000Y-17177500D03*
X102318000Y-17177500D03*
%TD*%
D29*
%TO.C,C4*%
X59918600Y-43154600D03*
X59918600Y-40157400D03*
%TD*%
%TO.C,C5*%
X59796600Y-48702600D03*
X59796600Y-45705400D03*
%TD*%
D37*
%TO.C,Q1*%
X63180000Y-51973000D03*
X61280000Y-51973000D03*
X62230000Y-53848000D03*
%TD*%
D12*
%TO.C,R17*%
X97250000Y-103000000D03*
X97250000Y-99469400D03*
%TD*%
D29*
%TO.C,C6*%
X56240600Y-45705400D03*
X56240600Y-48702600D03*
%TD*%
D28*
%TO.C,R16*%
X78460600Y-36322000D03*
X81457800Y-36322000D03*
%TD*%
D12*
%TO.C,R10*%
X129952000Y-69019300D03*
X129952000Y-65488700D03*
%TD*%
D38*
%TO.C,D1*%
X87662000Y-132232000D03*
X84362002Y-132232000D03*
X84362002Y-137210400D03*
X87662000Y-137210400D03*
%TD*%
D39*
%TO.C,L1*%
X62204600Y-64671000D03*
X62204600Y-61821000D03*
%TD*%
D17*
%TO.C,C10*%
X147053300Y-59944000D03*
X143522700Y-59944000D03*
%TD*%
D29*
%TO.C,C2*%
X68808600Y-53314600D03*
X68808600Y-50317400D03*
%TD*%
D40*
%TO.C,D9*%
X108292900Y-23114000D03*
X105067100Y-23114000D03*
%TD*%
D41*
%TO.C,U1*%
X62585600Y-45640000D03*
X63855600Y-45640000D03*
X65125600Y-45640000D03*
X66395600Y-45640000D03*
X67665600Y-45640000D03*
X68935600Y-45640000D03*
X70205600Y-45640000D03*
X71475600Y-45640000D03*
X71475600Y-40640000D03*
X70205600Y-40640000D03*
X68935600Y-40640000D03*
X67665600Y-40640000D03*
X66395600Y-40640000D03*
X65125600Y-40640000D03*
X63855600Y-40640000D03*
X62585600Y-40640000D03*
%TD*%
D42*
%TO.C,U2*%
X147208000Y-93586000D03*
X145938000Y-93586000D03*
X144668000Y-93586000D03*
X143398000Y-93586000D03*
X142128000Y-93586000D03*
X140858000Y-93586000D03*
X139588000Y-93586000D03*
X138318000Y-93586000D03*
X137048000Y-93586000D03*
X135778000Y-93586000D03*
X134508000Y-93586000D03*
X133238000Y-93586000D03*
X131968000Y-93586000D03*
X130698000Y-93586000D03*
D43*
X129448000Y-91821000D03*
X129448000Y-90551000D03*
X129448000Y-89281000D03*
X129448000Y-88011000D03*
X129448000Y-86741000D03*
X129448000Y-85471000D03*
X129448000Y-84201000D03*
X129448000Y-82931000D03*
X129448000Y-81661000D03*
X129448000Y-80391000D03*
X129448000Y-79121000D03*
X129448000Y-77851000D03*
D42*
X130698000Y-76086000D03*
X131968000Y-76086000D03*
X133238000Y-76086000D03*
X134508000Y-76086000D03*
X135778000Y-76086000D03*
X137048000Y-76086000D03*
X138318000Y-76086000D03*
X139588000Y-76086000D03*
X140858000Y-76086000D03*
X142128000Y-76086000D03*
X143398000Y-76086000D03*
X144668000Y-76086000D03*
X145938000Y-76086000D03*
X147208000Y-76086000D03*
D44*
X138088000Y-84736000D03*
X139488000Y-84736000D03*
X140888000Y-84736000D03*
X138088000Y-83336000D03*
X139488000Y-83336000D03*
X140888000Y-83336000D03*
X138088000Y-81936000D03*
X139488000Y-81936000D03*
X140888000Y-81936000D03*
%TD*%
M02*
