%TF.GenerationSoftware,KiCad,Pcbnew,9.0.0*%
%TF.CreationDate,2026-04-02T01:30:16-04:00*%
%TF.ProjectId,Projet_balance,50726f6a-6574-45f6-9261-6c616e63652e,rev?*%
%TF.SameCoordinates,Original*%
%TF.FileFunction,Soldermask,Top*%
%TF.FilePolarity,Negative*%
%FSLAX46Y46*%
G04 Gerber Fmt 4.6, Leading zero omitted, Abs format (unit mm)*
G04 Created by KiCad (PCBNEW 9.0.0) date 2026-04-02 01:30:16*
%MOMM*%
%LPD*%
G01*
G04 APERTURE LIST*
G04 Aperture macros list*
%AMRoundRect*
0 Rectangle with rounded corners*
0 $1 Rounding radius*
0 $2 $3 $4 $5 $6 $7 $8 $9 X,Y pos of 4 corners*
0 Add a 4 corners polygon primitive as box body*
4,1,4,$2,$3,$4,$5,$6,$7,$8,$9,$2,$3,0*
0 Add four circle primitives for the rounded corners*
1,1,$1+$1,$2,$3*
1,1,$1+$1,$4,$5*
1,1,$1+$1,$6,$7*
1,1,$1+$1,$8,$9*
0 Add four rect primitives between the rounded corners*
20,1,$1+$1,$2,$3,$4,$5,0*
20,1,$1+$1,$4,$5,$6,$7,0*
20,1,$1+$1,$6,$7,$8,$9,0*
20,1,$1+$1,$8,$9,$2,$3,0*%
G04 Aperture macros list end*
%ADD10C,0.010000*%
%ADD11RoundRect,0.102000X0.600000X1.250000X-0.600000X1.250000X-0.600000X-1.250000X0.600000X-1.250000X0*%
%ADD12C,2.100000*%
%ADD13R,1.727200X0.889000*%
%ADD14RoundRect,0.125000X-0.125000X-0.125000X0.125000X-0.125000X0.125000X0.125000X-0.125000X0.125000X0*%
%ADD15RoundRect,0.125000X0.125000X0.125000X-0.125000X0.125000X-0.125000X-0.125000X0.125000X-0.125000X0*%
%ADD16RoundRect,0.125000X-0.125000X0.125000X-0.125000X-0.125000X0.125000X-0.125000X0.125000X0.125000X0*%
%ADD17RoundRect,0.125000X0.125000X-0.125000X0.125000X0.125000X-0.125000X0.125000X-0.125000X-0.125000X0*%
%ADD18R,0.889000X1.727200*%
%ADD19C,2.800000*%
%ADD20RoundRect,0.102000X0.700000X1.700000X-0.700000X1.700000X-0.700000X-1.700000X0.700000X-1.700000X0*%
%ADD21RoundRect,0.102000X1.150000X2.800000X-1.150000X2.800000X-1.150000X-2.800000X1.150000X-2.800000X0*%
%ADD22RoundRect,0.102000X0.575000X-0.300000X0.575000X0.300000X-0.575000X0.300000X-0.575000X-0.300000X0*%
%ADD23RoundRect,0.102000X0.575000X-0.150000X0.575000X0.150000X-0.575000X0.150000X-0.575000X-0.150000X0*%
%ADD24O,2.004000X1.204000*%
%ADD25O,2.404000X1.204000*%
%ADD26RoundRect,0.102000X-0.700000X-0.800000X0.700000X-0.800000X0.700000X0.800000X-0.700000X0.800000X0*%
%ADD27RoundRect,0.102000X0.800000X-0.700000X0.800000X0.700000X-0.800000X0.700000X-0.800000X-0.700000X0*%
%ADD28RoundRect,0.186975X-0.560925X1.137725X-0.560925X-1.137725X0.560925X-1.137725X0.560925X1.137725X0*%
%ADD29RoundRect,0.178875X-0.536625X1.145825X-0.536625X-1.145825X0.536625X-1.145825X0.536625X1.145825X0*%
%ADD30RoundRect,0.170775X-0.512325X1.153925X-0.512325X-1.153925X0.512325X-1.153925X0.512325X1.153925X0*%
%ADD31RoundRect,0.470875X-1.891725X1.412625X-1.891725X-1.412625X1.891725X-1.412625X1.891725X1.412625X0*%
%ADD32O,1.700000X1.700000*%
%ADD33R,1.700000X1.700000*%
%ADD34R,1.320800X1.651000*%
%ADD35R,1.651000X1.320800*%
%ADD36RoundRect,0.102000X0.825000X0.825000X-0.825000X0.825000X-0.825000X-0.825000X0.825000X-0.825000X0*%
%ADD37C,1.854000*%
%ADD38RoundRect,0.102000X-1.750000X-0.800000X1.750000X-0.800000X1.750000X0.800000X-1.750000X0.800000X0*%
%ADD39R,3.200000X3.200000*%
%ADD40O,3.200000X3.200000*%
%ADD41R,2.971800X1.270000*%
%ADD42RoundRect,0.125500X0.536500X0.376500X-0.536500X0.376500X-0.536500X-0.376500X0.536500X-0.376500X0*%
%ADD43R,5.689600X1.600200*%
%ADD44R,1.270000X2.971800*%
%ADD45RoundRect,0.102000X2.075000X0.950000X-2.075000X0.950000X-2.075000X-0.950000X2.075000X-0.950000X0*%
%ADD46RoundRect,0.102000X-0.485000X-0.865000X0.485000X-0.865000X0.485000X0.865000X-0.485000X0.865000X0*%
%ADD47RoundRect,0.150000X-0.150000X0.587500X-0.150000X-0.587500X0.150000X-0.587500X0.150000X0.587500X0*%
%ADD48R,0.939800X1.549400*%
%ADD49RoundRect,0.102000X1.500000X-0.775000X1.500000X0.775000X-1.500000X0.775000X-1.500000X-0.775000X0*%
%ADD50R,2.565400X1.651000*%
%ADD51O,5.204000X2.704000*%
%ADD52O,4.704000X2.454000*%
%ADD53O,2.454000X4.704000*%
%ADD54RoundRect,0.150000X0.150000X-0.850000X0.150000X0.850000X-0.150000X0.850000X-0.150000X-0.850000X0*%
%ADD55C,0.600000*%
%ADD56R,3.900000X3.900000*%
%ADD57R,0.900000X1.500000*%
%ADD58R,1.500000X0.900000*%
G04 APERTURE END LIST*
D10*
%TO.C,U5*%
X125562000Y-23579500D02*
X114722000Y-23579500D01*
X114722000Y-14839500D01*
X125562000Y-14839500D01*
X125562000Y-23579500D01*
G36*
X125562000Y-23579500D02*
G01*
X114722000Y-23579500D01*
X114722000Y-14839500D01*
X125562000Y-14839500D01*
X125562000Y-23579500D01*
G37*
X117312000Y-31579500D02*
X116172000Y-31579500D01*
X116172000Y-28039500D01*
X117312000Y-28039500D01*
X117312000Y-31579500D01*
G36*
X117312000Y-31579500D02*
G01*
X116172000Y-31579500D01*
X116172000Y-28039500D01*
X117312000Y-28039500D01*
X117312000Y-31579500D01*
G37*
X119012000Y-31579500D02*
X117872000Y-31579500D01*
X117872000Y-28039500D01*
X119012000Y-28039500D01*
X119012000Y-31579500D01*
G36*
X119012000Y-31579500D02*
G01*
X117872000Y-31579500D01*
X117872000Y-28039500D01*
X119012000Y-28039500D01*
X119012000Y-31579500D01*
G37*
X120712000Y-31579500D02*
X119572000Y-31579500D01*
X119572000Y-28039500D01*
X120712000Y-28039500D01*
X120712000Y-31579500D01*
G36*
X120712000Y-31579500D02*
G01*
X119572000Y-31579500D01*
X119572000Y-28039500D01*
X120712000Y-28039500D01*
X120712000Y-31579500D01*
G37*
X122412000Y-31579500D02*
X121272000Y-31579500D01*
X121272000Y-28039500D01*
X122412000Y-28039500D01*
X122412000Y-31579500D01*
G36*
X122412000Y-31579500D02*
G01*
X121272000Y-31579500D01*
X121272000Y-28039500D01*
X122412000Y-28039500D01*
X122412000Y-31579500D01*
G37*
X124112000Y-31579500D02*
X122972000Y-31579500D01*
X122972000Y-28039500D01*
X124112000Y-28039500D01*
X124112000Y-31579500D01*
G36*
X124112000Y-31579500D02*
G01*
X122972000Y-31579500D01*
X122972000Y-28039500D01*
X124112000Y-28039500D01*
X124112000Y-31579500D01*
G37*
%TD*%
D11*
%TO.C,SW3*%
X112920000Y-129000000D03*
X110420000Y-129000000D03*
X107920000Y-129000000D03*
X112920000Y-134500000D03*
X110420000Y-134500000D03*
X107920000Y-134500000D03*
%TD*%
D12*
%TO.C,GPIO47*%
X116500000Y-88750000D03*
%TD*%
%TO.C,GPIO12*%
X120250000Y-83500000D03*
%TD*%
%TO.C,GPIO21*%
X120250000Y-87250000D03*
%TD*%
D13*
%TO.C,R12*%
X93472000Y-104515300D03*
X93472000Y-100984700D03*
%TD*%
D14*
%TO.C,D14*%
X142150000Y-44250000D03*
X144350000Y-44250000D03*
%TD*%
%TO.C,D13*%
X142150000Y-41700000D03*
X144350000Y-41700000D03*
%TD*%
D15*
%TO.C,D12*%
X144330000Y-46750000D03*
X142130000Y-46750000D03*
%TD*%
D16*
%TO.C,D11*%
X132500000Y-105400000D03*
X132500000Y-107600000D03*
%TD*%
%TO.C,D10*%
X130000000Y-105650000D03*
X130000000Y-107850000D03*
%TD*%
%TO.C,D6*%
X118364000Y-104050000D03*
X118364000Y-106250000D03*
%TD*%
%TO.C,D5*%
X115750000Y-104050000D03*
X115750000Y-106250000D03*
%TD*%
D17*
%TO.C,D4*%
X113250000Y-106250000D03*
X113250000Y-104050000D03*
%TD*%
D16*
%TO.C,D2*%
X110744000Y-104050000D03*
X110744000Y-106250000D03*
%TD*%
D18*
%TO.C,R11*%
X136734700Y-46500000D03*
X140265300Y-46500000D03*
%TD*%
D12*
%TO.C,TP2_GND1*%
X99060000Y-35052000D03*
%TD*%
D19*
%TO.C,H1*%
X65278000Y-22606000D03*
%TD*%
%TO.C,H2*%
X145034000Y-22606000D03*
%TD*%
%TO.C,H3*%
X65278000Y-102362000D03*
%TD*%
%TO.C,H4*%
X145034000Y-102362000D03*
%TD*%
D20*
%TO.C,JBatt1*%
X88626000Y-24282500D03*
X86126000Y-24282500D03*
D21*
X91276000Y-17682500D03*
X83476000Y-17682500D03*
%TD*%
D22*
%TO.C,P1*%
X148079000Y-48666000D03*
X148079000Y-47866000D03*
D23*
X148079000Y-46716000D03*
X148079000Y-45716000D03*
X148079000Y-45216000D03*
X148079000Y-44216000D03*
D22*
X148079000Y-42266000D03*
X148079000Y-43066000D03*
D23*
X148079000Y-43716000D03*
X148079000Y-44716000D03*
X148079000Y-46216000D03*
X148079000Y-47216000D03*
D24*
X148654000Y-49786000D03*
X148654000Y-41146000D03*
D25*
X152654000Y-49786000D03*
X152654000Y-41146000D03*
%TD*%
D26*
%TO.C,SW2*%
X101148000Y-128632000D03*
X101148000Y-135832000D03*
X104148000Y-128632000D03*
X104148000Y-135832000D03*
%TD*%
%TO.C,SW4*%
X94060000Y-129350000D03*
X94060000Y-136550000D03*
X97060000Y-129350000D03*
X97060000Y-136550000D03*
%TD*%
D27*
%TO.C,SWBootOption1*%
X115400000Y-98000000D03*
X122600000Y-98000000D03*
X115400000Y-95000000D03*
X122600000Y-95000000D03*
%TD*%
%TO.C,SWRESET1*%
X136650000Y-52500000D03*
X143850000Y-52500000D03*
X136650000Y-49500000D03*
X143850000Y-49500000D03*
%TD*%
D28*
%TO.C,U3*%
X140803100Y-14786300D03*
D29*
X138535500Y-14786300D03*
D30*
X136267900Y-14786300D03*
D31*
X138709400Y-21840500D03*
%TD*%
D32*
%TO.C,JP4*%
X59436000Y-70358000D03*
X59436000Y-72898000D03*
X59436000Y-75438000D03*
X59436000Y-77978000D03*
D33*
X59436000Y-80518000D03*
%TD*%
D13*
%TO.C,R6*%
X59918600Y-36055300D03*
X59918600Y-32524700D03*
%TD*%
D18*
%TO.C,R5*%
X148265300Y-38500000D03*
X144734700Y-38500000D03*
%TD*%
D13*
%TO.C,R00*%
X63728600Y-32499300D03*
X63728600Y-28968700D03*
%TD*%
%TO.C,C16*%
X74655600Y-39611300D03*
X74655600Y-36080700D03*
%TD*%
D18*
%TO.C,R7*%
X143776700Y-64008000D03*
X147307300Y-64008000D03*
%TD*%
D34*
%TO.C,C8*%
X146786600Y-70866000D03*
X143789400Y-70866000D03*
%TD*%
D12*
%TO.C,GPIO10*%
X126750000Y-81750000D03*
%TD*%
%TO.C,GPIO45*%
X117694000Y-91750000D03*
%TD*%
%TO.C,GPIO35*%
X127000000Y-98000000D03*
%TD*%
D33*
%TO.C,JP1*%
X120904000Y-109728000D03*
D32*
X118364000Y-109728000D03*
X115824000Y-109728000D03*
X113284000Y-109728000D03*
X110744000Y-109728000D03*
%TD*%
D13*
%TO.C,R13*%
X100584000Y-103000000D03*
X100584000Y-99469400D03*
%TD*%
D35*
%TO.C,R4*%
X71602600Y-54864000D03*
X71602600Y-57861200D03*
%TD*%
D36*
%TO.C,J9*%
X103410000Y-117500000D03*
D37*
X100870000Y-117500000D03*
X98330000Y-117500000D03*
X95790000Y-117500000D03*
X93250000Y-117500000D03*
X90710000Y-117500000D03*
X88170000Y-117500000D03*
X85630000Y-117500000D03*
X83090000Y-117500000D03*
X80550000Y-117500000D03*
%TD*%
D38*
%TO.C,C13*%
X139186000Y-32766000D03*
X144786000Y-32766000D03*
%TD*%
D35*
%TO.C,R3*%
X74552600Y-54864000D03*
X74552600Y-57861200D03*
%TD*%
D13*
%TO.C,C14*%
X132080000Y-18783300D03*
X132080000Y-15252700D03*
%TD*%
D39*
%TO.C,D8*%
X114046000Y-40640000D03*
D40*
X129286000Y-40640000D03*
%TD*%
D41*
%TO.C,J2*%
X99314000Y-21241500D03*
X95714058Y-23781500D03*
X99314000Y-26321500D03*
%TD*%
D13*
%TO.C,C15*%
X147828000Y-18529300D03*
X147828000Y-14998700D03*
%TD*%
D18*
%TO.C,C9*%
X143776700Y-67310000D03*
X147307300Y-67310000D03*
%TD*%
D35*
%TO.C,R2*%
X67030600Y-61722000D03*
X67030600Y-64719200D03*
%TD*%
D12*
%TO.C,GPIO36*%
X130750000Y-99250000D03*
%TD*%
%TO.C,TP_3.3V1*%
X151892000Y-27432000D03*
%TD*%
D34*
%TO.C,C11*%
X151498600Y-54250000D03*
X148501400Y-54250000D03*
%TD*%
D42*
%TO.C,D3*%
X86437500Y-125250000D03*
X82977500Y-125250000D03*
%TD*%
D33*
%TO.C,JP2*%
X135128000Y-110236000D03*
D32*
X132588000Y-110236000D03*
X130048000Y-110236000D03*
X127508000Y-110236000D03*
%TD*%
D12*
%TO.C,GPIO37*%
X134250000Y-97250000D03*
%TD*%
D33*
%TO.C,D7*%
X89920000Y-126525000D03*
D32*
X89920000Y-123985000D03*
%TD*%
D33*
%TO.C,J1*%
X81508600Y-30988000D03*
D32*
X84048600Y-30988000D03*
%TD*%
D43*
%TO.C,L2*%
X132334000Y-32321500D03*
X132334000Y-27622500D03*
%TD*%
D34*
%TO.C,R15*%
X78486000Y-40640000D03*
X81483200Y-40640000D03*
%TD*%
D13*
%TO.C,R14*%
X88392000Y-98056700D03*
X88392000Y-101587300D03*
%TD*%
D18*
%TO.C,R8*%
X145515300Y-56250000D03*
X141984700Y-56250000D03*
%TD*%
D44*
%TO.C,J5*%
X78264000Y-134053942D03*
X75724000Y-130454000D03*
X73184000Y-134053942D03*
%TD*%
D13*
%TO.C,R9*%
X133000000Y-69015300D03*
X133000000Y-65484700D03*
%TD*%
D34*
%TO.C,C1*%
X71530000Y-50774600D03*
X74527200Y-50774600D03*
%TD*%
D45*
%TO.C,C17*%
X110155000Y-31750000D03*
X103205000Y-31750000D03*
%TD*%
D34*
%TO.C,R1*%
X62255400Y-57658000D03*
X65252600Y-57658000D03*
%TD*%
D46*
%TO.C,F1*%
X99358000Y-17177500D03*
X102318000Y-17177500D03*
%TD*%
D35*
%TO.C,C4*%
X59918600Y-43154600D03*
X59918600Y-40157400D03*
%TD*%
%TO.C,C5*%
X59796600Y-48702600D03*
X59796600Y-45705400D03*
%TD*%
D47*
%TO.C,Q1*%
X63180000Y-51973000D03*
X61280000Y-51973000D03*
X62230000Y-53848000D03*
%TD*%
D13*
%TO.C,R17*%
X97250000Y-103000000D03*
X97250000Y-99469400D03*
%TD*%
D12*
%TO.C,TP1_VIN1*%
X110490000Y-17018000D03*
%TD*%
D35*
%TO.C,C6*%
X56240600Y-45705400D03*
X56240600Y-48702600D03*
%TD*%
D34*
%TO.C,R16*%
X78460600Y-36322000D03*
X81457800Y-36322000D03*
%TD*%
D13*
%TO.C,R10*%
X129952000Y-69019300D03*
X129952000Y-65488700D03*
%TD*%
D48*
%TO.C,D1*%
X87662000Y-132232000D03*
X84362002Y-132232000D03*
X84362002Y-137210400D03*
X87662000Y-137210400D03*
%TD*%
D49*
%TO.C,L1*%
X62204600Y-64671000D03*
X62204600Y-61821000D03*
%TD*%
D18*
%TO.C,C10*%
X147053300Y-59944000D03*
X143522700Y-59944000D03*
%TD*%
D35*
%TO.C,C2*%
X68808600Y-53314600D03*
X68808600Y-50317400D03*
%TD*%
D50*
%TO.C,D9*%
X108292900Y-23114000D03*
X105067100Y-23114000D03*
%TD*%
D51*
%TO.C,J3*%
X74676000Y-27590000D03*
D52*
X74676000Y-21590000D03*
D53*
X69976000Y-24590000D03*
%TD*%
D54*
%TO.C,U1*%
X62585600Y-45640000D03*
X63855600Y-45640000D03*
X65125600Y-45640000D03*
X66395600Y-45640000D03*
X67665600Y-45640000D03*
X68935600Y-45640000D03*
X70205600Y-45640000D03*
X71475600Y-45640000D03*
X71475600Y-40640000D03*
X70205600Y-40640000D03*
X68935600Y-40640000D03*
X67665600Y-40640000D03*
X66395600Y-40640000D03*
X65125600Y-40640000D03*
X63855600Y-40640000D03*
X62585600Y-40640000D03*
%TD*%
D12*
%TO.C,GPIO17*%
X136000000Y-64750000D03*
%TD*%
%TO.C,GPIO4*%
X139750000Y-59500000D03*
%TD*%
%TO.C,GPIO15*%
X139000000Y-70250000D03*
%TD*%
%TO.C,GPIO46*%
X115500000Y-78250000D03*
%TD*%
%TO.C,GPIO48*%
X120500000Y-90250000D03*
%TD*%
%TO.C,GPIO18*%
X134500000Y-71500000D03*
%TD*%
%TO.C,TP_5V1*%
X132080000Y-22606000D03*
%TD*%
%TO.C,GPIO3*%
X120750000Y-77500000D03*
%TD*%
%TO.C,GPIO1*%
X147066000Y-110490000D03*
%TD*%
%TO.C,GPIO16*%
X137500000Y-67500000D03*
%TD*%
%TO.C,GPIO2*%
X142748000Y-110744000D03*
%TD*%
%TO.C,GPIO13*%
X124000000Y-85250000D03*
%TD*%
%TO.C,GPIO14*%
X117250000Y-85750000D03*
%TD*%
%TO.C,GPIO11*%
X123000000Y-82000000D03*
%TD*%
D33*
%TO.C,J10*%
X103632000Y-108204000D03*
D32*
X101092000Y-108204000D03*
X98552000Y-108204000D03*
X96012000Y-108204000D03*
X93472000Y-108204000D03*
X90932000Y-108204000D03*
X88392000Y-108204000D03*
X85852000Y-108204000D03*
X83312000Y-108204000D03*
X80772000Y-108204000D03*
%TD*%
D55*
%TO.C,U2*%
X138788000Y-84736000D03*
X140188000Y-84736000D03*
X138088000Y-84036000D03*
X139488000Y-84036000D03*
X140888000Y-84036000D03*
X138788000Y-83336000D03*
D56*
X139488000Y-83336000D03*
D55*
X140188000Y-83336000D03*
X138088000Y-82636000D03*
X139488000Y-82636000D03*
X140888000Y-82636000D03*
X138788000Y-81936000D03*
X140188000Y-81936000D03*
D57*
X147208000Y-93586000D03*
X145938000Y-93586000D03*
X144668000Y-93586000D03*
X143398000Y-93586000D03*
X142128000Y-93586000D03*
X140858000Y-93586000D03*
X139588000Y-93586000D03*
X138318000Y-93586000D03*
X137048000Y-93586000D03*
X135778000Y-93586000D03*
X134508000Y-93586000D03*
X133238000Y-93586000D03*
X131968000Y-93586000D03*
X130698000Y-93586000D03*
D58*
X129448000Y-91821000D03*
X129448000Y-90551000D03*
X129448000Y-89281000D03*
X129448000Y-88011000D03*
X129448000Y-86741000D03*
X129448000Y-85471000D03*
X129448000Y-84201000D03*
X129448000Y-82931000D03*
X129448000Y-81661000D03*
X129448000Y-80391000D03*
X129448000Y-79121000D03*
X129448000Y-77851000D03*
D57*
X130698000Y-76086000D03*
X131968000Y-76086000D03*
X133238000Y-76086000D03*
X134508000Y-76086000D03*
X135778000Y-76086000D03*
X137048000Y-76086000D03*
X138318000Y-76086000D03*
X139588000Y-76086000D03*
X140858000Y-76086000D03*
X142128000Y-76086000D03*
X143398000Y-76086000D03*
X144668000Y-76086000D03*
X145938000Y-76086000D03*
X147208000Y-76086000D03*
%TD*%
M02*
